<?xml version="1.0" encoding="UTF-8"?>
<svg width="17px" height="22px" viewBox="0 0 17 22" version="1.1" xmlns="http://www.w3.org/2000/svg" xmlns:xlink="http://www.w3.org/1999/xlink">
    <!-- Generator: Sketch 48.1 (47250) - http://www.bohemiancoding.com/sketch -->
    <title>Group 3</title>
    <desc>Created with Sketch.</desc>
    <defs></defs>
    <g id="_01_dash" stroke="none" stroke-width="1" fill="none" fill-rule="evenodd" transform="translate(-17.000000, -162.000000)">
        <g id="CONTENT" transform="translate(0.000000, 49.000000)" fill="#002D72">
            <g id="MENU-LATERAL-DASH">
                <g id="outline" transform="translate(0.000000, 1.000000)">
                    <g id="Extrato" transform="translate(0.000000, 113.000000)">
                        <g id="titulo" transform="translate(18.000000, 0.000000)">
                            <g id="Group-3">
                                <rect id="Rectangle-8" x="1" y="18" width="11.3333333" height="1"></rect>
                                <rect id="Rectangle-8" x="1" y="15" width="11.3333333" height="1"></rect>
                                <path d="M0.833333333,11.5364777 C0.833333333,11.5364777 1.46329158,12.2069415 2.6078636,12.3342448 L2.6078636,13.1150381 L3.37091162,13.1150381 L3.37091162,12.3342448 C4.45337509,12.1984547 5.08333333,11.4600958 5.08333333,10.5944336 C5.08333333,8.69337161 2.09324983,8.87159617 2.09324983,7.86165698 C2.09324983,7.43731279 2.51026444,7.14027185 3.04262352,7.14027185 C3.83228949,7.14027185 4.43562978,7.66645865 4.43562978,7.66645865 L4.93249826,6.77533584 C4.93249826,6.77533584 4.40013918,6.24066216 3.37091162,6.15579332 L3.37091162,5.375 L2.6078636,5.375 L2.6078636,6.17276709 C1.6229993,6.325531 0.93980515,7.00448171 0.93980515,7.87863075 C0.93980515,9.70331079 3.93876131,9.60146819 3.93876131,10.6198943 C3.93876131,11.1121335 3.50400139,11.3497663 3.02487822,11.3497663 C2.13761308,11.3497663 1.45441893,10.71325 1.45441893,10.71325 L0.833333333,11.5364777 Z" id="$"></path>
                                <path d="M14.5898438,5.8984375 C14.8632826,6.17187637 15,6.49739395 15,6.875 L15,18.59375 C15,18.984377 14.8632826,19.3164049 14.5898438,19.5898438 C14.3164049,19.8632826 13.984377,20 13.59375,20 L1.40625,20 C1.01562305,20 0.683595117,19.8632826 0.41015625,19.5898438 C0.136717383,19.3164049 0,18.984377 0,18.59375 L0,1.40625 C0,1.01562305 0.136717383,0.683595117 0.41015625,0.41015625 C0.683595117,0.136717383 1.01562305,0 1.40625,0 L8.1640625,0 C8.35937598,0 8.54817617,0.0390621094 8.73046875,0.1171875 C8.75651055,0.130208398 8.7760416,0.143229102 8.7890625,0.15625 C8.8151043,0.15625 8.8411457,0.169270703 8.8671875,0.1953125 C8.98437559,0.260416992 9.08203086,0.332030859 9.16015625,0.41015625 L14.5898438,5.8984375 Z M13.1818182,6.08695652 L9.09090909,2.17391304 L9.09090909,6.08695652 L13.1818182,6.08695652 Z M13.6363636,18.6956522 L13.6363636,7.47035573 L8.91608392,7.47035573 C8.52272531,7.47035573 8.1883755,7.33201719 7.91302448,7.05533597 C7.63767345,6.77865474 7.5,6.44268972 7.5,6.04743083 L7.5,1.30434783 L1.36363636,1.30434783 L1.36363636,18.6956522 L13.6363636,18.6956522 Z" id="file---anticon" stroke="#F6F6F6" stroke-width="0.5"></path>
                            </g>
                        </g>
                    </g>
                </g>
            </g>
        </g>
    </g>
</svg>