<?xml version="1.0" encoding="UTF-8"?>
<svg width="17px" height="17px" viewBox="0 0 17 17" version="1.1" xmlns="http://www.w3.org/2000/svg" xmlns:xlink="http://www.w3.org/1999/xlink">
    <!-- Generator: Sketch 48.1 (47250) - http://www.bohemiancoding.com/sketch -->
    <title>home - simple-line-icons</title>
    <desc>Created with Sketch.</desc>
    <defs></defs>
    <g id="_01_dash" stroke="none" stroke-width="1" fill="none" fill-rule="evenodd" transform="translate(-16.000000, -64.000000)">
        <g id="CONTENT" transform="translate(0.000000, 49.000000)" fill="#002D72">
            <g id="MENU-LATERAL-DASH">
                <g id="outline" transform="translate(0.000000, 1.000000)">
                    <g id="Pag-Inicial" transform="translate(0.000000, 12.000000)">
                        <path d="M32.8588705,10.5166016 C32.9581844,10.6272792 33.0050818,10.7545566 32.9995644,10.8984375 C32.994047,11.0423184 32.9416321,11.1695958 32.8423183,11.2802734 C32.787144,11.3245445 32.7292118,11.3605142 32.66852,11.3881836 C32.6078283,11.415853 32.5443787,11.4296875 32.4781695,11.4296875 C32.4009254,11.4296875 32.3291999,11.415853 32.2629907,11.3881836 C32.1967815,11.3605142 32.1416079,11.3190107 32.0974685,11.2636719 L31.3857231,10.5166016 L31.3857231,18.46875 C31.3857231,18.6126309 31.3333082,18.7371414 31.228477,18.8422852 C31.1236457,18.9474289 30.9995053,19 30.8560521,19 L18.1605002,19 C18.006012,19 17.8791129,18.9474289 17.7797991,18.8422852 C17.6804853,18.7371414 17.6308292,18.6126309 17.6308292,18.46875 L17.6308292,10.5166016 L16.9190837,11.2636719 C16.8087351,11.3632817 16.681836,11.4158528 16.5383827,11.4213867 C16.3949294,11.4269206 16.2680303,11.3798833 16.1576817,11.2802734 C16.0583679,11.1695958 16.005953,11.0423184 16.0004356,10.8984375 C15.9949182,10.7545566 16.0418156,10.6272792 16.1411295,10.5166016 L24.1358512,2.16601562 C24.1910255,2.11067681 24.2517164,2.06917332 24.3179256,2.04150391 C24.3841348,2.0138345 24.450343,2 24.5165522,2 C24.5937963,2 24.6655219,2.0138345 24.7317311,2.04150391 C24.7979403,2.06917332 24.8531138,2.11067681 24.8972533,2.16601562 L32.8588705,10.5166016 Z M30.3263811,9.48730469 C30.3263811,9.46516916 30.3318984,9.44303396 30.3429333,9.42089844 L24.5165522,3.31152344 L18.6736189,9.42089844 C18.6736189,9.44303396 18.6763776,9.46516916 18.6818951,9.48730469 C18.6874125,9.50944021 18.6901712,9.53157541 18.6901712,9.55371094 L18.6901712,17.9375 L30.3263811,17.9375 L30.3263811,9.48730469 Z" id="home---simple-line-icons"></path>
                    </g>
                </g>
            </g>
        </g>
    </g>
</svg>