<?xml version="1.0" encoding="UTF-8"?>
<svg width="17px" height="13px" viewBox="0 0 17 13" version="1.1" xmlns="http://www.w3.org/2000/svg" xmlns:xlink="http://www.w3.org/1999/xlink">
    <!-- Generator: Sketch 48.1 (47250) - http://www.bohemiancoding.com/sketch -->
    <title>Investimentos</title>
    <desc>Created with Sketch.</desc>
    <defs></defs>
    <g id="_01_dash" stroke="none" stroke-width="1" fill="none" fill-rule="evenodd" transform="translate(-16.000000, -321.000000)">
        <g id="CONTENT" transform="translate(0.000000, 49.000000)" fill="#002D72">
            <g id="MENU-LATERAL-DASH">
                <g id="outline" transform="translate(0.000000, 1.000000)">
                    <g id="Investimentos" transform="translate(0.000000, 267.000000)">
                        <g transform="translate(16.000000, 4.000000)" id="Group-5">
                            <g>
                                <path d="M15.4290653,2.94476549 C15.0748969,2.94476549 14.7717118,3.07086903 14.5195009,3.32307989 C14.2672901,3.57529075 14.1411865,3.87847584 14.1411865,4.23264428 C14.1411865,4.30777092 14.1492357,4.38021338 14.1653342,4.44997383 C14.1814328,4.51973428 14.2002142,4.58681063 14.2216789,4.65120489 L11.0824744,7.35575034 C10.9644182,7.26989133 10.8383147,7.20013192 10.70416,7.14647004 C10.5700053,7.09280816 10.4278034,7.06597762 10.2775502,7.06597762 C10.1058321,7.06597762 9.94216583,7.09817426 9.78654636,7.16256852 C9.6309269,7.22696279 9.49409115,7.31818662 9.376035,7.43624277 L6.91296682,6.19665943 C6.89150206,5.86395575 6.76003242,5.58223508 6.51855394,5.35148898 C6.27707546,5.12074288 5.98462258,5.00537155 5.64118651,5.00537155 C5.28701808,5.00537155 4.98383298,5.13147509 4.73162212,5.38368595 C4.47941126,5.63589681 4.35330773,5.93908191 4.35330773,6.29325034 C4.35330773,6.38984173 4.36403994,6.48374862 4.3855047,6.57497383 C4.40696945,6.66619903 4.4391661,6.75473981 4.48209561,6.84059883 L1.97073197,9.72222762 C1.89560533,9.70076286 1.82047982,9.68198148 1.74535318,9.66588292 C1.67022654,9.64978435 1.59510103,9.64173519 1.51997439,9.64173519 C1.16580596,9.64173519 0.862620856,9.76783873 0.610409999,10.0200496 C0.358199142,10.2722604 0.232095605,10.5754455 0.232095605,10.929614 C0.232095605,11.2837824 0.358199142,11.5869675 0.610409999,11.8391784 C0.862620856,12.0913892 1.16580596,12.2174928 1.51997439,12.2174928 C1.87414283,12.2174928 2.17732793,12.0913892 2.42953879,11.8391784 C2.68174964,11.5869675 2.80785318,11.2837824 2.80785318,10.929614 C2.80785318,10.843755 2.79980402,10.7605803 2.78370545,10.6800875 C2.76760689,10.5995946 2.7434594,10.5217861 2.71126227,10.4466594 L5.25482288,7.51673519 C5.31921714,7.53819995 5.38361043,7.55429827 5.4480047,7.56503065 C5.51239896,7.57576302 5.57679225,7.58112913 5.64118651,7.58112913 C5.82363692,7.58112913 5.99803543,7.54356637 6.16438727,7.46843974 C6.33073911,7.3933131 6.47294097,7.29135705 6.59099712,7.16256852 L8.98967136,8.36995489 C8.98967136,8.72412333 9.1157749,9.02462537 9.36798576,9.27147004 C9.62019661,9.51831471 9.92338171,9.64173519 10.2775502,9.64173519 C10.6317186,9.64173519 10.9349037,9.51563165 11.1871145,9.2634208 C11.4393254,9.01120994 11.5654289,8.70802484 11.5654289,8.3538564 L11.5654289,8.28946246 L14.9139138,5.40783368 C14.9890404,5.44003081 15.069532,5.46686135 15.1553911,5.4883261 C15.2412501,5.50979085 15.3324739,5.52052307 15.4290653,5.52052307 C15.7832337,5.52052307 16.0864188,5.39441953 16.3386297,5.14220868 C16.5908406,4.88999782 16.7169441,4.58681272 16.7169441,4.23264428 C16.7169441,3.87847584 16.5908406,3.57529075 16.3386297,3.32307989 C16.0864188,3.07086903 15.7832337,2.94476549 15.4290653,2.94476549 Z" id="Graph---simple-line-icons"></path>
                                <path d="M0,4.4810747 C0,4.4810747 0.458151452,4.96868476 1.29056747,5.06126895 L1.29056747,5.62911863 L1.84551148,5.62911863 L1.84551148,5.06126895 C2.63275764,4.96251248 3.09090909,4.42552419 3.09090909,3.79595171 C3.09090909,2.41336117 0.916302904,2.54297903 0.916302904,1.80847781 C0.916302904,1.49986385 1.21958626,1.28383407 1.6067565,1.28383407 C2.18105902,1.28383407 2.61985196,1.66651539 2.61985196,1.66651539 L2.98121086,1.01842607 C2.98121086,1.01842607 2.59404061,0.629572479 1.84551148,0.567849687 L1.84551148,0 L1.29056747,0 L1.29056747,0.580194245 C0.574302524,0.691295271 0.0774340482,1.18507761 0.0774340482,1.82082237 C0.0774340482,3.14786239 2.25849307,3.07379504 2.25849307,3.81446855 C2.25849307,4.17246074 1.94230404,4.34528456 1.59385083,4.34528456 C0.948567091,4.34528456 0.451698615,3.88236362 0.451698615,3.88236362 L0,4.4810747 Z" id="$"></path>
                            </g>
                        </g>
                    </g>
                </g>
            </g>
        </g>
    </g>
</svg>