<?xml version="1.0" encoding="UTF-8"?>
<svg width="17px" height="17px" viewBox="0 0 17 17" version="1.1" xmlns="http://www.w3.org/2000/svg" xmlns:xlink="http://www.w3.org/1999/xlink">
    <!-- Generator: Sketch 48.1 (47250) - http://www.bohemiancoding.com/sketch -->
    <title>User - simple-line-icons</title>
    <desc>Created with Sketch.</desc>
    <defs></defs>
    <g id="_01_dash" stroke="none" stroke-width="1" fill="none" fill-rule="evenodd" transform="translate(-16.000000, -114.000000)">
        <g id="CONTENT" transform="translate(0.000000, 49.000000)" fill="#002D72">
            <g id="MENU-LATERAL-DASH">
                <g id="outline" transform="translate(0.000000, 1.000000)">
                    <g id="Minha-COnta" transform="translate(0.000000, 62.000000)">
                        <path d="M24.5083089,3.06353861 C24.054087,3.06353861 23.6054111,3.14939634 23.1622678,3.32111437 C22.7191245,3.4928324 22.3203015,3.71163112 21.9657869,3.97751711 C21.6112723,4.24340309 21.326003,4.53144192 21.1099707,4.84164223 C20.8939383,5.15184254 20.7859238,5.44542058 20.7859238,5.72238514 L20.7859238,8.38123167 C20.7859238,8.90192505 20.9160951,9.56663004 21.1764418,10.3753666 C21.4367885,11.1841031 21.8439203,11.8100336 22.3978495,12.2531769 C22.541871,12.3639628 22.6498856,12.5052126 22.7218964,12.6769306 C22.7939072,12.8486486 22.8188336,13.0286729 22.7966764,13.2170088 C22.7634407,13.3942661 22.6942006,13.5576728 22.5889541,13.7072336 C22.4837075,13.8567945 22.3479969,13.9703483 22.1818182,14.0478983 L17.512219,16.2580645 C17.4457475,16.2802217 17.3543505,16.3328442 17.2380254,16.4159335 C17.1217003,16.4990229 17.0635386,16.6513511 17.0635386,16.8729228 L17.0635386,17.9530792 L31.9364614,17.9364614 L31.9364614,16.9061584 C31.9364614,16.6181152 31.8672213,16.4380909 31.728739,16.3660802 C31.5902567,16.2940694 31.5154774,16.2580645 31.5043988,16.2580645 L26.8680352,14.0645161 C26.7018565,13.9869661 26.5633762,13.8734123 26.4525904,13.7238514 C26.3418046,13.5742906 26.2753341,13.4053447 26.2531769,13.2170088 C26.2310198,13.0286729 26.2559462,12.8486486 26.327957,12.6769306 C26.3999678,12.5052126 26.5079823,12.3639628 26.6520039,12.2531769 C27.2280902,11.8100336 27.635222,11.1813335 27.8734115,10.3670577 C28.1116011,9.55278185 28.230694,8.89084647 28.230694,8.38123167 L28.230694,5.72238514 C28.230694,5.43434199 28.1199099,5.13522475 27.8983382,4.82502444 C27.6767666,4.51482413 27.3914973,4.2295549 27.042522,3.96920821 C26.6935466,3.70886152 26.2947237,3.4928324 25.8460411,3.32111437 C25.3973585,3.14939634 24.9514522,3.06353861 24.5083089,3.06353861 Z M24.5083089,2 C25.0954738,2 25.674321,2.11078416 26.244868,2.33235582 C26.815415,2.55392747 27.3250222,2.8419663 27.7737048,3.19648094 C28.2223874,3.55099558 28.5879751,3.94981857 28.870479,4.39296188 C29.1529828,4.83610518 29.2942326,5.27924184 29.2942326,5.72238514 L29.2942326,8.38123167 C29.2942326,8.70251057 29.2609974,9.07363752 29.1945259,9.49462366 C29.1280544,9.91560979 29.0172702,10.3448984 28.8621701,10.7825024 C28.7070699,11.2201065 28.5021192,11.6410863 28.2473118,12.0454545 C27.9925044,12.4498228 27.6823088,12.7960233 27.3167155,13.0840665 L31.9530792,15.2942326 L32.4765396,15.585044 C32.8255149,15.7789192 33,16.0309532 33,16.3411535 L33,17.9530792 C33,18.2411223 32.8975246,18.4876171 32.6925709,18.6925709 C32.4876171,18.8975246 32.2411223,19 31.9530792,19 L17.0635386,19 C16.7644169,19 16.5123829,18.8975246 16.3074291,18.6925709 C16.1024754,18.4876171 16,18.2411223 16,17.9530792 L16,16.3411535 C16,16.0531103 16.1772547,15.8066156 16.5317693,15.6016618 L17.0635386,15.2942326 L21.7331378,13.0840665 C21.356466,12.7849447 21.0407312,12.4248962 20.7859238,12.0039101 C20.5311164,11.5829239 20.323396,11.1536353 20.1627566,10.7160313 C20.0021172,10.2784273 19.8885634,9.85190824 19.8220919,9.43646139 C19.7556204,9.02101454 19.7223851,8.66927482 19.7223851,8.38123167 L19.7223851,5.72238514 C19.7223851,5.27924184 19.8608653,4.83610518 20.1378299,4.39296188 C20.4147945,3.94981857 20.7776126,3.55099558 21.2262952,3.19648094 C21.6749778,2.8419663 22.1873546,2.55392747 22.7634409,2.33235582 C23.3395272,2.11078416 23.921144,2 24.5083089,2 Z" id="User---simple-line-icons"></path>
                    </g>
                </g>
            </g>
        </g>
    </g>
</svg>