<?xml version="1.0" encoding="UTF-8"?>
<svg width="17px" height="22px" viewBox="0 0 17 22" version="1.1" xmlns="http://www.w3.org/2000/svg" xmlns:xlink="http://www.w3.org/1999/xlink">
    <!-- Generator: Sketch 48.1 (47250) - http://www.bohemiancoding.com/sketch -->
    <title>Comprovantes</title>
    <desc>Created with Sketch.</desc>
    <defs></defs>
    <g id="_01_dash" stroke="none" stroke-width="1" fill="none" fill-rule="evenodd" transform="translate(-15.000000, -363.000000)">
        <g id="CONTENT" transform="translate(0.000000, 49.000000)" fill="#002D72">
            <g id="MENU-LATERAL-DASH">
                <g id="outline" transform="translate(0.000000, 1.000000)">
                    <g id="Comprovantes" transform="translate(0.000000, 314.000000)">
                        <g transform="translate(16.000000, 0.000000)" id="Group-6">
                            <g>
                                <path d="M14.5898438,5.8984375 C14.8632826,6.17187637 15,6.49739395 15,6.875 L15,18.59375 C15,18.984377 14.8632826,19.3164049 14.5898438,19.5898438 C14.3164049,19.8632826 13.984377,20 13.59375,20 L1.40625,20 C1.01562305,20 0.683595117,19.8632826 0.41015625,19.5898438 C0.136717383,19.3164049 0,18.984377 0,18.59375 L0,1.40625 C0,1.01562305 0.136717383,0.683595117 0.41015625,0.41015625 C0.683595117,0.136717383 1.01562305,0 1.40625,0 L8.1640625,0 C8.35937598,0 8.54817617,0.0390621094 8.73046875,0.1171875 C8.75651055,0.130208398 8.7760416,0.143229102 8.7890625,0.15625 C8.8151043,0.15625 8.8411457,0.169270703 8.8671875,0.1953125 C8.98437559,0.260416992 9.08203086,0.332030859 9.16015625,0.41015625 L14.5898438,5.8984375 Z M13.1818182,6.08695652 L9.09090909,2.17391304 L9.09090909,6.08695652 L13.1818182,6.08695652 Z M13.6363636,18.6956522 L13.6363636,7.47035573 L8.91608392,7.47035573 C8.52272531,7.47035573 8.1883755,7.33201719 7.91302448,7.05533597 C7.63767345,6.77865474 7.5,6.44268972 7.5,6.04743083 L7.5,1.30434783 L1.36363636,1.30434783 L1.36363636,18.6956522 L13.6363636,18.6956522 Z" id="file---anticon" stroke="#F5F5F5" stroke-width="0.5"></path>
                                <path d="M10.7343272,10.4801223 C10.832187,10.3822625 10.9447241,10.3333333 11.0719419,10.3333333 C11.1991597,10.3333333 11.3116968,10.3822625 11.4095566,10.4801223 C11.4976304,10.5681962 11.5416667,10.6782868 11.5416667,10.8103976 C11.5416667,10.9425083 11.4976304,11.0525989 11.4095566,11.1406728 L6.72698777,15.8525994 L6.66827217,15.911315 C6.58019834,16.0091748 6.47010769,16.058104 6.33799694,16.058104 C6.20588619,16.058104 6.09579555,16.0091748 6.00772171,15.911315 L3.67377676,13.5920489 C3.58570292,13.5039751 3.54166667,13.3938845 3.54166667,13.2617737 C3.54166667,13.1296629 3.58570292,13.0195723 3.67377676,12.9314985 C3.77163657,12.8336387 3.88417368,12.7847095 4.01139144,12.7847095 C4.1386092,12.7847095 4.2511463,12.8336387 4.34900612,12.9314985 L6.33065749,14.9131498 L10.7343272,10.4801223 Z" id="Path"></path>
                            </g>
                        </g>
                    </g>
                </g>
            </g>
        </g>
    </g>
</svg>