<?xml version="1.0" encoding="UTF-8"?>
<svg width="17px" height="17px" viewBox="0 0 17 17" version="1.1" xmlns="http://www.w3.org/2000/svg" xmlns:xlink="http://www.w3.org/1999/xlink">
    <!-- Generator: Sketch 48.1 (47250) - http://www.bohemiancoding.com/sketch -->
    <title>question - simple-line-icons</title>
    <desc>Created with Sketch.</desc>
    <defs></defs>
    <g id="_01_dash" stroke="none" stroke-width="1" fill="none" fill-rule="evenodd" transform="translate(-16.000000, -417.000000)">
        <g id="CONTENT" transform="translate(0.000000, 49.000000)" fill="#002D72">
            <g id="MENU-LATERAL-DASH">
                <g id="outline" transform="translate(0.000000, 1.000000)">
                    <g id="Ajuda" transform="translate(0.000000, 367.000000)">
                        <path d="M24.5,0 C25.6731829,0 26.7771758,0.221351953 27.8120117,0.6640625 C28.8468476,1.10677305 29.7488568,1.71272402 30.5180664,2.48193359 C31.287276,3.25114317 31.893227,4.15315238 32.3359375,5.18798828 C32.778648,6.22282418 33,7.32681705 33,8.5 C33,9.67318295 32.778648,10.7771758 32.3359375,11.8120117 C31.893227,12.8468476 31.287276,13.7488568 30.5180664,14.5180664 C29.7488568,15.287276 28.8468476,15.893227 27.8120117,16.3359375 C26.7771758,16.778648 25.6731829,17 24.5,17 C23.3268171,17 22.2228242,16.778648 21.1879883,16.3359375 C20.1531524,15.893227 19.2511432,15.287276 18.4819336,14.5180664 C17.712724,13.7488568 17.106773,12.8468476 16.6640625,11.8120117 C16.221352,10.7771758 16,9.67318295 16,8.5 C16,7.32681705 16.221352,6.22282418 16.6640625,5.18798828 C17.106773,4.15315238 17.712724,3.25114317 18.4819336,2.48193359 C19.2511432,1.71272402 20.1531524,1.10677305 21.1879883,0.6640625 C22.2228242,0.221351953 23.3268171,0 24.5,0 Z M24.5,15.9541016 C25.529302,15.9541016 26.4949499,15.7576517 27.3969727,15.3647461 C28.2989954,14.9718405 29.0847948,14.4378289 29.7543945,13.7626953 C30.4239942,13.0875617 30.9552389,12.2989954 31.3481445,11.3969727 C31.7410501,10.4949499 31.9375,9.52930202 31.9375,8.5 C31.9375,7.47069798 31.7410501,6.50505008 31.3481445,5.60302734 C30.9552389,4.7010046 30.4239942,3.91520517 29.7543945,3.24560547 C29.0847948,2.57600577 28.2989954,2.04476108 27.3969727,1.65185547 C26.4949499,1.25894986 25.529302,1.0625 24.5,1.0625 C23.470698,1.0625 22.5050501,1.25894986 21.6030273,1.65185547 C20.7010046,2.04476108 19.9152052,2.57600577 19.2456055,3.24560547 C18.5760058,3.91520517 18.0447611,4.7010046 17.6518555,5.60302734 C17.2589499,6.50505008 17.0625,7.47069798 17.0625,8.5 C17.0625,9.52930202 17.2589499,10.4949499 17.6518555,11.3969727 C18.0447611,12.2989954 18.5760058,13.0875617 19.2456055,13.7626953 C19.9152052,14.4378289 20.7010046,14.9718405 21.6030273,15.3647461 C22.5050501,15.7576517 23.470698,15.9541016 24.5,15.9541016 Z M23.7197266,13.28125 L23.7197266,11.9365234 L25.0478516,11.9365234 L25.0478516,13.28125 L23.7197266,13.28125 Z M24.4833984,3.71875 C24.9150412,3.71875 25.2941064,3.77132109 25.6206055,3.87646484 C25.9471045,3.9816086 26.2320951,4.14485566 26.4755859,4.36621094 C26.708009,4.57649845 26.8823236,4.83382009 26.9985352,5.13818359 C27.1147467,5.44254709 27.1728516,5.78840952 27.1728516,6.17578125 C27.1728516,6.46354311 27.134115,6.73469925 27.0566406,6.98925781 C26.9791663,7.24381638 26.8684903,7.48730353 26.7246094,7.71972656 C26.5696607,7.94108184 26.3898122,8.17073449 26.1850586,8.40869141 C25.980305,8.64664833 25.7561861,8.88736857 25.5126953,9.13085938 C25.3909499,9.25260478 25.2941084,9.36604765 25.222168,9.47119141 C25.1502275,9.57633516 25.1031902,9.67317664 25.0810547,9.76171875 C25.0589192,9.85026086 25.0423178,9.96923753 25.03125,10.1186523 C25.0201822,10.2680672 25.0146484,10.436848 25.0146484,10.625 L23.7363281,10.625 C23.7363281,10.3151026 23.7501626,10.0522472 23.777832,9.83642578 C23.8055014,9.62060439 23.8470049,9.45182353 23.9023438,9.33007813 C23.9466148,9.20833272 24.0379225,9.06722085 24.1762695,8.90673828 C24.3146166,8.74625571 24.494465,8.56640725 24.7158203,8.3671875 C24.9261078,8.11262894 25.1087232,7.88851008 25.2636719,7.69482422 C25.4186206,7.50113835 25.5403641,7.33789129 25.6289063,7.20507813 C25.7174484,7.0611972 25.7838539,6.90901773 25.828125,6.74853516 C25.8723961,6.58805258 25.8945313,6.40820412 25.8945313,6.20898438 C25.8945313,5.9876291 25.8640954,5.78841234 25.8032227,5.61132813 C25.74235,5.43424391 25.6510423,5.28483134 25.5292969,5.16308594 C25.4075515,5.04134054 25.2609058,4.94726596 25.0893555,4.88085938 C24.9178051,4.81445279 24.7158215,4.78125 24.4833984,4.78125 C24.2841787,4.78125 24.1015633,4.80891899 23.9355469,4.86425781 C23.7695304,4.91959663 23.6201179,5.00260361 23.4873047,5.11328125 C23.3434238,5.21289112 23.2382816,5.38997269 23.171875,5.64453125 C23.1054684,5.89908981 23.0722656,6.13150937 23.0722656,6.34179688 L21.84375,6.34179688 L21.8271484,6.29199219 C21.8160807,5.94889151 21.8714187,5.58919459 21.9931641,5.21289063 C22.1149095,4.83658666 22.3030586,4.54329532 22.5576172,4.33300781 C22.8121758,4.1227203 23.0999333,3.96777394 23.4208984,3.86816406 C23.7418636,3.76855419 24.0960267,3.71875 24.4833984,3.71875 Z" id="question---simple-line-icons"></path>
                    </g>
                </g>
            </g>
        </g>
    </g>
</svg>