<?xml version="1.0" encoding="UTF-8"?>
<svg width="17px" height="17px" viewBox="0 0 17 17" version="1.1" xmlns="http://www.w3.org/2000/svg" xmlns:xlink="http://www.w3.org/1999/xlink">
    <!-- Generator: Sketch 48.1 (47250) - http://www.bohemiancoding.com/sketch -->
    <title>retweet - anticon</title>
    <desc>Created with Sketch.</desc>
    <defs></defs>
    <g id="_01_dash" stroke="none" stroke-width="1" fill="none" fill-rule="evenodd" transform="translate(-16.000000, -215.000000)">
        <g id="CONTENT" transform="translate(0.000000, 49.000000)" fill="#002D72">
            <g id="MENU-LATERAL-DASH">
                <g id="outline" transform="translate(0.000000, 1.000000)">
                    <g id="Transferencias" transform="translate(0.000000, 163.000000)">
                        <path d="M21.6984305,6.81634938 C20.5041046,6.81634938 19.484496,7.23833098 18.639574,8.08230683 C17.794652,8.92628268 17.3721973,9.94474954 17.3721973,11.137738 C17.3721973,11.3281085 17.3054939,11.4899209 17.1720852,11.6231803 C17.0386765,11.7564396 16.8766826,11.8230683 16.6860987,11.8230683 C16.4955147,11.8230683 16.3335208,11.7564396 16.2001121,11.6231803 C16.0667034,11.4899209 16,11.3281085 16,11.137738 C16,9.56400856 16.5558614,8.22191671 17.6676009,7.11142217 C18.7793404,6.00092763 20.1229368,5.44568869 21.6984305,5.44568869 L28.2544843,5.44568869 L25.9674888,3.1612542 C25.8404328,3.03434054 25.7769058,2.87570084 25.7769058,2.68533035 C25.7769058,2.49495985 25.8436092,2.33314736 25.9770179,2.19988802 C26.1104267,2.06662867 26.2724206,2 26.4630045,2 C26.6535884,2 26.8124059,2.06345588 26.9394619,2.19036954 L30.4461883,5.69316909 C30.5859499,5.83277412 30.6558296,5.99458661 30.6558296,6.17861142 C30.6558296,6.36263623 30.5859499,6.52444872 30.4461883,6.66405375 L27.0347534,10.0526316 C26.9076974,10.1922366 26.7488799,10.2620381 26.558296,10.2620381 C26.3677121,10.2620381 26.2057182,10.1954094 26.0723094,10.0621501 C25.9389007,9.92889071 25.8721973,9.76707822 25.8721973,9.57670773 C25.8721973,9.38633723 25.942077,9.22135195 26.0818386,9.08174692 L28.3497758,6.81634938 L21.6984305,6.81634938 Z M32.7998879,9.37681971 C32.9332966,9.51007905 33,9.67189155 33,9.86226204 C33,11.4359914 32.4441386,12.7780833 31.3323991,13.8885778 C30.2206596,14.9990724 28.8770632,15.5543113 27.3015695,15.5543113 L20.7455157,15.5543113 L23.0325112,17.8387458 C23.1595672,17.9656595 23.2230942,18.1242992 23.2230942,18.3146697 C23.2230942,18.5050401 23.1563908,18.6668526 23.0229821,18.800112 C22.8895733,18.9333713 22.7275794,19 22.5369955,19 C22.3464116,19 22.1875941,18.9365441 22.0605381,18.8096305 L18.5538117,15.3068309 C18.4267557,15.1672259 18.3632287,15.0054134 18.3632287,14.8213886 C18.3632287,14.6373638 18.4267557,14.4755513 18.5538117,14.3359462 L21.9652466,10.9473684 C22.0923026,10.8077634 22.2511201,10.7379619 22.441704,10.7379619 C22.6322879,10.7379619 22.7942818,10.8045906 22.9276906,10.9378499 C23.0610993,11.0711093 23.1278027,11.2329218 23.1278027,11.4232923 C23.1278027,11.6136628 23.0642757,11.7723025 22.9372197,11.8992161 L20.6502242,14.1836506 L27.3015695,14.1836506 C28.4958954,14.1836506 29.515504,13.761669 30.360426,12.9176932 C31.205348,12.0737173 31.6278027,11.0552505 31.6278027,9.86226204 C31.6278027,9.67189155 31.6945061,9.51007905 31.8279148,9.37681971 C31.9613235,9.24356036 32.1233174,9.17693169 32.3139013,9.17693169 C32.5044853,9.17693169 32.6664792,9.24356036 32.7998879,9.37681971 Z" id="retweet---anticon" transform="translate(24.500000, 10.500000) scale(-1, 1) rotate(90.000000) translate(-24.500000, -10.500000) "></path>
                    </g>
                </g>
            </g>
        </g>
    </g>
</svg>