<?xml version="1.0" encoding="UTF-8"?>
<svg width="130px" height="74px" viewBox="0 0 130 74" version="1.1" xmlns="http://www.w3.org/2000/svg" xmlns:xlink="http://www.w3.org/1999/xlink">
    <!-- Generator: Sketch 47.1 (45422) - http://www.bohemiancoding.com/sketch -->
    <title>Page 1</title>
    <desc>Created with Sketch.</desc>
    <defs>
        <polygon id="path-1" points="0 74.3193475 129.530678 74.3193475 129.530678 1.10180508 0 1.10180508"></polygon>
    </defs>
    <g id="Symbols" stroke="none" stroke-width="1" fill="none" fill-rule="evenodd">
        <g id="LOGO_OMNI" transform="translate(0.000000, -1.000000)">
            <g id="Page-1">
                <g id="Group-3" transform="translate(0.000000, 11.522737)" fill="#FC5F00">
                    <path d="M0.0494661017,21.6054492 C-0.660025424,13.8076525 6.27404237,6.48248305 19.4282797,0.731635593 C18.4841271,2.0735 18.3276864,3.09477119 17.9332797,4.58977119 C12.9712458,28.5406186 56.2193814,43.5071441 78.9065847,42.1696864 C65.8316695,46.0289237 3.43827966,45.8680763 0.0494661017,21.6054492" id="Fill-1"></path>
                </g>
                <g id="Group-6" transform="translate(49.576271, 0.505788)" fill="#FC5F00">
                    <path d="M79.9040593,23.0127542 C80.6157542,30.8083475 73.6816864,38.1390254 60.5274492,43.8909746 C61.4727034,42.5480085 61.6280424,41.5267373 62.0235508,40.0273305 C66.9833814,16.0808898 23.7374492,1.11105932 1.04694068,2.45292373 C14.1262627,-1.40741525 76.5185508,-1.25097458 79.9040593,23.0127542" id="Fill-4"></path>
                </g>
                <path d="M12.8980932,70.0468644 L13.9083475,69.4894068 C14.2796186,70.1052542 14.7555508,70.5933051 15.7195339,70.5933051 C16.5204661,70.5933051 17.0900424,70.1625424 17.0900424,69.5136441 C17.0900424,68.8283898 16.6251271,68.5265254 15.7658051,68.1431356 L15.2436017,67.910678 C14.0934322,67.4005932 13.3982627,66.82 13.3982627,65.6004237 C13.3982627,64.4271186 14.3027542,63.5920339 15.6148729,63.5920339 C16.6603814,63.5920339 17.3676695,63.9864407 17.8436017,64.8347458 L16.8807203,65.4263559 C16.5788559,64.9041525 16.2296186,64.6595763 15.6148729,64.6595763 C14.9880085,64.6595763 14.5936017,65.0429661 14.5936017,65.5772881 C14.5936017,66.1688983 14.9296186,66.4366102 15.7305508,66.7847458 L16.2417373,67.0172034 C17.5891102,67.6088136 18.3085169,68.235678 18.3085169,69.5015254 C18.3085169,70.8830508 17.2288559,71.6839831 15.7426695,71.6839831 C14.2454661,71.6839831 13.3398729,70.9414407 12.8980932,70.0468644" id="Fill-7" fill="#153275"></path>
                <path d="M23.3701441,69.1414915 C23.3701441,68.2469153 22.8248051,67.6211525 21.9533644,67.6211525 C21.0830254,67.6211525 20.5255678,68.2469153 20.5255678,69.1414915 C20.5255678,70.0360678 21.0830254,70.6739492 21.9533644,70.6739492 C22.8248051,70.6739492 23.3701441,70.0360678 23.3701441,69.1414915 M19.3192119,69.1414915 C19.3192119,67.6905593 20.4792966,66.5987797 21.9533644,66.5987797 C23.4395508,66.5987797 24.5776017,67.6905593 24.5776017,69.1414915 C24.5776017,70.5924237 23.4395508,71.6842034 21.9533644,71.6842034 C20.4792966,71.6842034 19.3192119,70.5924237 19.3192119,69.1414915" id="Fill-9" fill="#153275"></path>
                <mask id="mask-2" fill="white">
                    <use xlink:href="#path-1"></use>
                </mask>
                <g id="Clip-12"></g>
                <polygon id="Fill-11" fill="#153275" mask="url(#mask-2)" points="25.8666949 71.5794322 27.0388983 71.5794322 27.0388983 63.1977373 25.8666949 63.1977373"></polygon>
                <path d="M28.6989322,69.6057458 L28.6989322,66.7038814 L29.8711356,66.7038814 L29.8711356,69.5132034 C29.8711356,70.2094746 30.1961356,70.616 30.8813898,70.616 C31.6481695,70.616 32.1241017,70.1400678 32.1241017,69.3501525 L32.1241017,66.7038814 L33.2963051,66.7038814 L33.2963051,71.5799831 L32.1241017,71.5799831 L32.1472373,70.6854068 C31.8453729,71.3122712 31.2537627,71.6835424 30.5101186,71.6835424 C29.4425763,71.6835424 28.6989322,70.9299831 28.6989322,69.6057458" id="Fill-13" fill="#153275" mask="url(#mask-2)"></path>
                <path d="M34.5737203,69.1414915 C34.5737203,67.6905593 35.6886356,66.5987797 37.1737203,66.5987797 C38.0914322,66.5987797 38.6830424,66.9469153 39.1479576,67.5275085 L38.3117712,68.2006441 C38.0804153,67.8646271 37.6727881,67.6321695 37.1737203,67.6321695 C36.3033814,67.6321695 35.781178,68.2700508 35.781178,69.1414915 C35.781178,70.0129322 36.3033814,70.6508136 37.1737203,70.6508136 C37.7543136,70.6508136 38.1035508,70.4062373 38.370161,70.1054746 L39.1710932,70.8017458 C38.706178,71.3360678 38.1266864,71.6720847 37.2089746,71.6842034 L37.2089746,72.1138644 C37.731178,72.2064068 38.2071102,72.577678 38.2071102,73.2397966 C38.2071102,73.9250508 37.6265169,74.3194576 37.0349068,74.3194576 C36.3727881,74.3194576 35.9662627,74.0065763 35.7580424,73.6231864 L36.3617712,73.2629322 C36.4664322,73.4722542 36.6283814,73.646322 36.9423644,73.646322 C37.1968559,73.646322 37.4293136,73.4953898 37.4293136,73.1814068 C37.4293136,72.891661 37.2199915,72.6944576 36.860839,72.6944576 L36.5468559,72.6944576 L36.5468559,71.6147966 C35.3856695,71.3592034 34.5737203,70.3831017 34.5737203,69.1414915" id="Fill-14" fill="#153275" mask="url(#mask-2)"></path>
                <path d="M44.1167119,69.1414915 C44.1167119,68.2469153 43.5713729,67.6211525 42.6999322,67.6211525 C41.8295932,67.6211525 41.2721356,68.2469153 41.2721356,69.1414915 C41.2721356,70.0360678 41.8295932,70.6739492 42.6999322,70.6739492 C43.5713729,70.6739492 44.1167119,70.0360678 44.1167119,69.1414915 L44.1167119,69.1414915 Z M40.8545932,65.7394576 C40.9008644,64.7875932 41.3767966,64.2885254 41.9915424,64.2885254 C42.3176441,64.2885254 42.5379831,64.416322 42.758322,64.5903898 C43.0370508,64.7997119 43.1417119,64.9032712 43.3267966,64.9032712 C43.5482373,64.9032712 43.6639153,64.7071695 43.6991695,64.2995424 L44.5232373,64.3810678 C44.4769661,65.3329322 44.0241695,65.8331017 43.3851864,65.8331017 C43.0723051,65.8331017 42.8398475,65.6931864 42.6184068,65.5191186 C42.3407797,65.3097966 42.2471356,65.2051356 42.0620508,65.2051356 C41.8417119,65.2051356 41.7128136,65.4144576 41.678661,65.8209831 L40.8545932,65.7394576 Z M40.064678,69.1414915 C40.064678,67.6905593 41.2258644,66.5987797 42.6999322,66.5987797 C44.1861186,66.5987797 45.3241695,67.6905593 45.3241695,69.1414915 C45.3241695,70.5924237 44.1861186,71.6842034 42.6999322,71.6842034 C41.2258644,71.6842034 40.064678,70.5924237 40.064678,69.1414915 L40.064678,69.1414915 Z" id="Fill-15" fill="#153275" mask="url(#mask-2)"></path>
                <path d="M50.1185254,68.7235085 C50.0138644,68.0613898 49.6084407,67.5744407 48.7953898,67.5744407 C48.0407288,67.5744407 47.5185254,67.9919831 47.3786102,68.7235085 L50.1185254,68.7235085 Z M48.9231864,70.6977458 C49.5610678,70.6977458 50.0259831,70.4421525 50.3047119,70.1744407 L50.9899661,70.8949492 C50.5360678,71.3466441 49.9103051,71.6837627 48.9342034,71.6837627 C47.2629322,71.6837627 46.1832712,70.6041017 46.1832712,69.1410508 C46.1832712,67.6901186 47.3202203,66.598339 48.7832712,66.598339 C50.4435254,66.598339 51.3843729,67.8289322 51.3028475,69.5354576 L47.3786102,69.5354576 C47.5185254,70.2438475 48.0297119,70.6977458 48.9231864,70.6977458 L48.9231864,70.6977458 Z" id="Fill-16" fill="#153275" mask="url(#mask-2)"></path>
                <path d="M51.9996695,70.6740593 L52.8006017,70.1166017 C53.1024661,70.5462627 53.5552627,70.7434661 54.1116186,70.7434661 C54.7043305,70.7434661 54.9720424,70.5462627 54.9720424,70.2212627 C54.9720424,69.8257542 54.6117881,69.7684661 53.7877203,69.5360085 C53.0672119,69.3388051 52.3478051,69.0016864 52.3478051,68.0388051 C52.3478051,67.0638051 53.1256017,66.5988898 54.0884831,66.5988898 C54.8673814,66.5988898 55.4127203,66.9238898 55.7839915,67.3304153 L55.0987373,68.0035508 C54.8673814,67.735839 54.5302627,67.5276186 54.0884831,67.5276186 C53.6478051,67.5276186 53.4043305,67.6906695 53.4043305,67.9804153 C53.4043305,68.3516864 53.7061949,68.4332119 54.4718729,68.6304153 C55.2386525,68.8276186 56.074839,69.1294831 56.074839,70.1628729 C56.074839,70.9990593 55.5636525,71.6843136 54.1821271,71.6843136 C53.0672119,71.6843136 52.3246695,71.1962627 51.9996695,70.6740593" id="Fill-17" fill="#153275" mask="url(#mask-2)"></path>
                <polygon id="Fill-18" fill="#153275" mask="url(#mask-2)" points="62.2274746 63.6846864 67.1388305 63.6846864 67.1388305 64.7643475 63.4580678 64.7643475 63.4580678 67.9339237 66.8017119 67.9339237 66.8017119 69.0257034 63.4580678 69.0257034 63.4580678 71.5794322 62.2274746 71.5794322"></polygon>
                <path d="M68.5661864,71.5794322 L69.7505085,71.5794322 L69.7505085,66.7033305 L68.5661864,66.7033305 L68.5661864,71.5794322 Z M68.38,64.8106186 C68.38,64.3699407 68.7402542,64.0449407 69.1577966,64.0449407 C69.5764407,64.0449407 69.9366949,64.3699407 69.9366949,64.8106186 C69.9366949,65.2755339 69.5764407,65.5884153 69.1577966,65.5884153 C68.7402542,65.5884153 68.38,65.2755339 68.38,64.8106186 L68.38,64.8106186 Z" id="Fill-19" fill="#153275" mask="url(#mask-2)"></path>
                <path d="M71.4218898,66.7035508 L72.5951949,66.7035508 L72.5720593,67.6091441 C72.872822,66.970161 73.4886695,66.5988898 74.2201949,66.5988898 C75.2998559,66.5988898 76.0435,67.3656695 76.0435,68.6888051 L76.0435,71.5796525 L74.8701949,71.5796525 L74.8701949,68.7813475 C74.8701949,68.0850763 74.5451949,67.6785508 73.8599407,67.6785508 C73.0942627,67.6785508 72.5951949,68.1434661 72.5951949,68.9322797 L72.5951949,71.5796525 L71.4218898,71.5796525 L71.4218898,66.7035508 Z" id="Fill-20" fill="#153275" mask="url(#mask-2)"></path>
                <path d="M79.2472288,69.4895169 C78.7360424,69.4895169 78.4000254,69.6757034 78.4000254,70.1053644 C78.4000254,70.5229068 78.7250254,70.7432458 79.3287542,70.7432458 C80.0129068,70.7432458 80.5009576,70.4072288 80.5009576,69.8729068 L80.5009576,69.4895169 L79.2472288,69.4895169 Z M79.5259576,67.5736695 C78.8869746,67.5736695 78.5157034,67.8523983 78.2490932,68.1553644 L77.5748559,67.4701102 C78.0045169,66.9589237 78.5851102,66.5986695 79.6185,66.5986695 C80.7907034,66.5986695 81.6742627,67.2607881 81.6742627,68.7007034 L81.6742627,71.5794322 L80.5009576,71.5794322 L80.5362119,70.883161 C80.1880763,71.4053644 79.723161,71.6840932 79.0037542,71.6840932 C78.0397712,71.6840932 77.2509576,71.2312966 77.2509576,70.1395169 C77.2509576,69.1292627 78.0629068,68.6885847 79.1657034,68.6775678 L80.5009576,68.6775678 C80.5009576,67.8997712 80.152822,67.5736695 79.5259576,67.5736695 L79.5259576,67.5736695 Z" id="Fill-21" fill="#153275" mask="url(#mask-2)"></path>
                <path d="M83.1015085,66.7035508 L84.2737119,66.7035508 L84.2505763,67.6091441 C84.5524407,66.970161 85.1682881,66.5988898 85.8998136,66.5988898 C86.9794746,66.5988898 87.7220169,67.3656695 87.7220169,68.6888051 L87.7220169,71.5796525 L86.5498136,71.5796525 L86.5498136,68.7813475 C86.5498136,68.0850763 86.2248136,67.6785508 85.5395593,67.6785508 C84.7738814,67.6785508 84.2737119,68.1434661 84.2737119,68.9322797 L84.2737119,71.5796525 L83.1015085,71.5796525 L83.1015085,66.7035508 Z" id="Fill-22" fill="#153275" mask="url(#mask-2)"></path>
                <path d="M88.8133559,69.1414915 C88.8133559,67.6905593 89.9282712,66.5987797 91.4144576,66.5987797 C92.3310678,66.5987797 92.922678,66.9469153 93.3875932,67.5275085 L92.5525085,68.2006441 C92.3200508,67.8646271 91.9124237,67.6321695 91.4144576,67.6321695 C90.5430169,67.6321695 90.0208136,68.2700508 90.0208136,69.1414915 C90.0208136,70.0129322 90.5430169,70.6508136 91.4144576,70.6508136 C91.9939492,70.6508136 92.3431864,70.4062373 92.6097966,70.1054746 L93.4107288,70.8017458 C92.9347966,71.3470847 92.3542034,71.6842034 91.4144576,71.6842034 C89.9282712,71.6842034 88.8133559,70.6045424 88.8133559,69.1414915" id="Fill-23" fill="#153275" mask="url(#mask-2)"></path>
                <path d="M98.1126525,68.7235085 C98.0079915,68.0613898 97.6025678,67.5744407 96.7895169,67.5744407 C96.0348559,67.5744407 95.5126525,67.9919831 95.3727373,68.7235085 L98.1126525,68.7235085 Z M96.9173136,70.6977458 C97.5551949,70.6977458 98.0201102,70.4421525 98.2977373,70.1744407 L98.9840932,70.8949492 C98.5301949,71.3466441 97.9044322,71.6837627 96.9283305,71.6837627 C95.2570593,71.6837627 94.1773983,70.6041017 94.1773983,69.1410508 C94.1773983,67.6901186 95.3143475,66.598339 96.7773983,66.598339 C98.4376525,66.598339 99.3785,67.8289322 99.2969746,69.5354576 L95.3727373,69.5354576 C95.5126525,70.2438475 96.023839,70.6977458 96.9173136,70.6977458 L96.9173136,70.6977458 Z" id="Fill-24" fill="#153275" mask="url(#mask-2)"></path>
                <path d="M100.492203,71.5794322 L101.676525,71.5794322 L101.676525,66.7033305 L100.492203,66.7033305 L100.492203,71.5794322 Z M100.307119,64.8106186 C100.307119,64.3699407 100.666271,64.0449407 101.084915,64.0449407 C101.502458,64.0449407 101.862712,64.3699407 101.862712,64.8106186 C101.862712,65.2755339 101.502458,65.5884153 101.084915,65.5884153 C100.666271,65.5884153 100.307119,65.2755339 100.307119,64.8106186 L100.307119,64.8106186 Z" id="Fill-25" fill="#153275" mask="url(#mask-2)"></path>
                <path d="M103.348458,66.7035508 L104.520661,66.7035508 L104.509644,67.6212627 C104.834644,66.8544831 105.392102,66.6110085 105.926424,66.6110085 C106.274559,66.6110085 106.518034,66.6914322 106.727356,66.8192288 L106.331847,67.8757542 C106.146763,67.7832119 105.960576,67.7138051 105.693966,67.7138051 C104.997695,67.7138051 104.520661,68.1203305 104.520661,69.2110085 L104.520661,71.5796525 L103.348458,71.5796525 L103.348458,66.7035508 Z" id="Fill-26" fill="#153275" mask="url(#mask-2)"></path>
                <path d="M109.20011,69.4895169 C108.688924,69.4895169 108.351805,69.6757034 108.351805,70.1053644 C108.351805,70.5229068 108.676805,70.7432458 109.281636,70.7432458 C109.965788,70.7432458 110.453839,70.4072288 110.453839,69.8729068 L110.453839,69.4895169 L109.20011,69.4895169 Z M109.477737,67.5736695 C108.839856,67.5736695 108.468585,67.8523983 108.200873,68.1553644 L107.527737,67.4701102 C107.957398,66.9589237 108.537992,66.5986695 109.571381,66.5986695 C110.743585,66.5986695 111.626042,67.2607881 111.626042,68.7007034 L111.626042,71.5794322 L110.453839,71.5794322 L110.487992,70.883161 C110.139856,71.4053644 109.676042,71.6840932 108.956636,71.6840932 C107.992653,71.6840932 107.203839,71.2312966 107.203839,70.1395169 C107.203839,69.1292627 108.015788,68.6885847 109.118585,68.6775678 L110.453839,68.6775678 C110.453839,67.8997712 110.105703,67.5736695 109.477737,67.5736695 L109.477737,67.5736695 Z" id="Fill-27" fill="#153275" mask="url(#mask-2)"></path>
                <path d="M112.485254,70.6740593 L113.286186,70.1166017 C113.588051,70.5462627 114.040847,70.7434661 114.598305,70.7434661 C115.191017,70.7434661 115.457627,70.5462627 115.457627,70.2212627 C115.457627,69.8257542 115.097373,69.7684661 114.273305,69.5360085 C113.553898,69.3388051 112.83339,69.0016864 112.83339,68.0388051 C112.83339,67.0638051 113.611186,66.5988898 114.575169,66.5988898 C115.352966,66.5988898 115.898305,66.9238898 116.270678,67.3304153 L115.584322,68.0035508 C115.352966,67.735839 115.015847,67.5276186 114.575169,67.5276186 C114.13339,67.5276186 113.889915,67.6906695 113.889915,67.9804153 C113.889915,68.3516864 114.19178,68.4332119 114.958559,68.6304153 C115.724237,68.8276186 116.560424,69.1294831 116.560424,70.1628729 C116.560424,70.9990593 116.049237,71.6843136 114.667712,71.6843136 C113.553898,71.6843136 112.810254,71.1962627 112.485254,70.6740593" id="Fill-28" fill="#153275" mask="url(#mask-2)"></path>
                <polygon id="Fill-29" fill="#153275" mask="url(#mask-2)" points="95.4494153 23.9913898 89.6236525 23.9913898 87.4995847 36.1937627 93.1667034 36.1937627"></polygon>
                <path d="M96.4731102,18.7975593 C96.4731102,17.3003559 95.2920932,16.2768814 93.8742119,16.2768814 C91.9076864,16.2768814 90.2540424,17.9294237 90.2540424,19.9763729 C90.2540424,21.3920508 91.2753136,22.4188305 92.6931949,22.4188305 C94.7456525,22.4188305 96.4731102,20.7640847 96.4731102,18.7975593" id="Fill-30" fill="#153275" mask="url(#mask-2)"></path>
                <path d="M86.8725,27.1404746 C86.8725,24.6991186 84.9830932,23.5974237 82.698178,23.5974237 C81.1238559,23.5974237 79.942839,24.1515763 79.4680085,24.6208983 L79.0769068,23.9918305 L73.6455508,23.9918305 L71.4399576,36.1942034 L77.2635169,36.1942034 C77.2635169,36.1942034 78.8003814,28.4647119 78.9436017,27.5701356 C78.9634322,27.4489492 78.9854661,27.3343729 79.0119068,27.2264068 C79.1782627,26.5356441 79.7103814,26.1192034 80.3196186,26.1192034 C80.8594492,26.1192034 81.3012288,26.597339 81.203178,27.2264068 C81.1789407,27.3850508 81.1624153,27.5525085 81.1624153,27.5525085 L79.5495339,36.1942034 L85.3752966,36.1942034 L86.7920763,28.0868305 C86.8725,27.691322 86.8725,27.2980169 86.8725,27.1404746" id="Fill-31" fill="#153275" mask="url(#mask-2)"></path>
                <path d="M71.0490763,26.9833729 C71.0490763,27.2984576 70.9697542,27.6917627 70.9697542,28.0861695 L69.6311949,36.1935424 L64.199839,36.1935424 L65.6166186,27.8471017 C65.6166186,27.8471017 65.6772119,27.5705763 65.683822,27.2268475 C65.6992458,26.4920169 65.3808559,26.1185424 64.8289068,26.1185424 C64.1216186,26.1185424 63.4914492,26.6682881 63.2545847,28.2415085 L61.8378051,36.1935424 L56.5661949,36.1935424 L58.0589915,27.8471017 C58.0589915,27.6917627 58.1372119,27.3777797 58.1372119,27.2180339 C58.1372119,26.4325254 57.8254322,26.1185424 57.114839,26.1185424 C56.4075508,26.1185424 55.9382288,26.7465085 55.6969576,28.2415085 L54.2019576,36.1935424 L48.9292458,36.1935424 L51.0533136,23.9911695 L56.1706864,23.9911695 L56.4868729,24.621339 C56.9583983,24.1509153 58.1372119,23.5978644 59.6322119,23.5978644 C61.2087373,23.5978644 62.3126356,24.0715932 63.018822,25.0939661 C64.199839,24.1509153 65.6166186,23.5978644 67.2702627,23.5978644 C69.3965339,23.5978644 70.9697542,24.621339 71.0490763,26.9833729" id="Fill-32" fill="#153275" mask="url(#mask-2)"></path>
                <path d="M42.300678,27.5702458 C41.6121186,31.3380424 40.0289831,34.4547373 37.0544068,34.4547373 C34.7529661,34.4547373 33.9961017,32.0949068 34.5921186,27.5702458 C35.3214407,22.0320254 38.2541525,20.1690593 40.1821186,20.4797373 C42.6388983,20.8774492 43.0101695,23.6834661 42.300678,27.5702458 M39.8681356,18.5220254 C30.2327119,18.5220254 28.4964407,25.5354153 28.1758475,27.6385508 C27.2504237,32.8297373 30.4629661,36.4080424 36.6919492,36.5116017 C39.8681356,36.5116017 47.3023729,35.8120254 48.8127966,27.5713475 C49.1829661,24.6166017 49.5035593,18.5220254 39.8681356,18.5220254" id="Fill-33" fill="#153275" mask="url(#mask-2)"></path>
            </g>
        </g>
    </g>
</svg>