<?xml version="1.0" encoding="UTF-8"?>
<svg width="18px" height="17px" viewBox="0 0 18 17" version="1.1" xmlns="http://www.w3.org/2000/svg" xmlns:xlink="http://www.w3.org/1999/xlink">
    <!-- Generator: Sketch 47.1 (45422) - http://www.bohemiancoding.com/sketch -->
    <title>Rectangle 3</title>
    <desc>Created with Sketch.</desc>
    <defs></defs>
    <g id="Symbols" stroke="none" stroke-width="1" fill="none" fill-rule="evenodd">
        <g id="HEADER-BRANCO" transform="translate(-888.000000, -22.000000)" stroke-width="1.5" stroke="#002D72">
            <g id="--HEADER--">
                <g id="Menu-Superior" transform="translate(682.000000, 3.000000)">
                    <g id="Mensagens" transform="translate(206.000000, 17.000000)">
                        <g id="msg_icon" transform="translate(0.000000, 2.000000)">
                            <path d="M2,0.75 C1.30964406,0.75 0.75,1.30964406 0.75,2 L0.75,11.9199488 C0.75,12.4927791 1.21437067,12.9571498 1.78720093,12.9571498 L2.58456585,12.9571498 C3.44226726,12.9571498 4.2508549,13.3573343 4.77104925,14.0392797 L5.82667147,15.4231409 C6.23438362,15.9576285 6.99180593,16.0739432 7.54110797,15.686421 L10.6969087,13.4600634 C11.1607618,13.1328237 11.7145188,12.9571498 12.2821856,12.9571498 L16,12.9571498 C16.6903559,12.9571498 17.25,12.3975057 17.25,11.7071498 L17.25,2 C17.25,1.30964406 16.6903559,0.75 16,0.75 L2,0.75 Z" id="Rectangle-3"></path>
                        </g>
                    </g>
                </g>
            </g>
        </g>
    </g>
</svg>